HIERARCHY
ROOT Hips
{
	OFFSET 0.00000 0.00000 0.00000
	CHANNELS 6 Xposition Yposition Zposition Zrotation Yrotation Xrotation 
	JOINT LHipJoint
	{
		OFFSET 0 0 0
		CHANNELS 3 Zrotation Yrotation Xrotation
		JOINT LeftHip
		{
			OFFSET 1.56741 -1.82513 0.67319
			CHANNELS 3 Zrotation Yrotation Xrotation
			JOINT LeftKnee
			{
				OFFSET 2.35708 -6.47604 0.00000
				CHANNELS 3 Zrotation Yrotation Xrotation
				JOINT LeftAnkle
				{
					OFFSET 2.70636 -7.43567 0.00000
					CHANNELS 3 Zrotation Yrotation Xrotation
					JOINT LeftToe
					{
						OFFSET 0.20427 -0.56122 2.08535
						CHANNELS 3 Zrotation Yrotation Xrotation
						End Site
						{
							OFFSET 0.00000 -0.00000 1.08535
						}
					}
				}
			}
		}
	}
	JOINT RHipJoint
	{
		OFFSET 0 0 0
		CHANNELS 3 Zrotation Yrotation Xrotation
		JOINT RightHip
		{
			OFFSET -1.51422 -1.82513 0.67319
			CHANNELS 3 Zrotation Yrotation Xrotation
			JOINT RightKnee
			{
				OFFSET -2.48824 -6.83638 0.00000
				CHANNELS 3 Zrotation Yrotation Xrotation
				JOINT RightAnkle
				{
					OFFSET -2.70033 -7.41909 0.00000
					CHANNELS 3 Zrotation Yrotation Xrotation
					JOINT RightToe
					{
						OFFSET -0.19750 -0.54263 2.22151
						CHANNELS 3 Zrotation Yrotation Xrotation
						End Site
						{
							OFFSET -0.00000 -0.00000 1.14915
						}
					}
				}
			}
		}
	}
	JOINT lowerback
	{
		OFFSET 0 0 0
		CHANNELS 3 Zrotation Yrotation Xrotation
		JOINT Chest
		{
			OFFSET -0.01567 2.12874 -0.15842
			CHANNELS 3 Zrotation Yrotation Xrotation
			JOINT Chest2
			{
				OFFSET 0.06098 2.13326 -0.01043
				CHANNELS 3 Zrotation Yrotation Xrotation
				JOINT lowerneck
				{
					OFFSET 0 0 0
					CHANNELS 3 Zrotation Yrotation Xrotation
					JOINT Neck
					{
						OFFSET -0.05040 1.78432 0.13387
						CHANNELS 3 Zrotation Yrotation Xrotation
						JOINT Head
						{
							OFFSET -0.00180 1.76880 -0.33303
							CHANNELS 3 Zrotation Yrotation Xrotation
							End Site
							{
								OFFSET 0.00734 1.81249 -0.12719
							}
						}
					}
				}
				JOINT LeftCollar
				{
					OFFSET 0 0 0
					CHANNELS 3 Zrotation Yrotation Xrotation
					JOINT LeftShoulder
					{
						OFFSET 3.72199 0.94188 -0.54317
CHANNELS 3 Zrotation Xrotation Yrotation
						JOINT LeftElbow
						{
OFFSET 0 -5.146010 0.000000
CHANNELS 3 Zrotation Xrotation Yrotation
							JOINT LeftWrist
							{
OFFSET 0 -3.644520 -0.000000
CHANNELS 3 Zrotation Xrotation Yrotation
								JOINT lhand
								{
									OFFSET 0 0 0
CHANNELS 3 Zrotation Xrotation Yrotation
									JOINT LFingers
									{
OFFSET 0 -0.562280 0.000000
CHANNELS 3 Zrotation Xrotation Yrotation
										End Site
										{
OFFSET 0 -0.453320 0.000000
										}
									}
								}
								JOINT LThumb
								{
OFFSET 0 0.000000 0.000000
CHANNELS 3 Zrotation Xrotation Yrotation
									End Site
									{
OFFSET 0 -0.460250 0.460250
									}
								}
							}
						}
					}
				}
				JOINT RightCollar
				{
					OFFSET 0 0 0
					CHANNELS 3 Zrotation Yrotation Xrotation
					JOINT RightShoulder
					{
						OFFSET -3.30253 1.22679 -0.46941
CHANNELS 3 Zrotation Xrotation Yrotation
						JOINT RightElbow
						{
OFFSET 0 -5.339130 0.000000
CHANNELS 3 Zrotation Xrotation Yrotation
							JOINT RightWrist
							{
OFFSET 0 -3.564780 -0.000000
CHANNELS 3 Zrotation Xrotation Yrotation
								JOINT rhand
								{
									OFFSET 0 0 0
CHANNELS 3 Zrotation Xrotation Yrotation
									JOINT RFingers
									{
OFFSET 0 -0.857470 0.000000
CHANNELS 3 Zrotation Xrotation Yrotation
										End Site
										{
OFFSET 0 -0.691320 0.000000
										}
									}
								}
								JOINT RThumb
								{
OFFSET 0 0.000000 0.000000
CHANNELS 3 Zrotation Xrotation Yrotation
									End Site
									{
OFFSET 0 -0.701870 0.701870
									}
								}
							}
						}
					}
				}
			}
		}
	}
}
MOTION
Frames: 4
Frame Time: 0.008333333333333333
-11.791100 17.771800 -12.255200 -0.325100 -7.979800 6.222100 0.000000 0.000000 0.000000 -19.214600 -8.665500 -7.463200 1.470200 7.662200 21.692800 0.465400 5.768200 -16.287600 0.535800 -4.690000 -13.026600 0.000000 0.000000 0.000000 25.616300 7.950500 -14.428600 -3.096800 -10.850200 31.776200 -0.654700 -6.239500 -18.813700 -0.435900 -4.236500 11.742900 0.146500 -2.139000 3.263700 4.107100 -2.755600 -0.706600 4.298600 -1.353300 -2.361600 -8.983200 -9.580500 -8.622000 4.656400 -12.305500 10.594400 1.908100 -6.094200 5.445300 -0.000000 0.000000 0.000000 -1.605100 1.379500 -14.756100 20.159500 -30.834100 5.612900 14.655500 3.833000 -13.141200 0.000000 0.000000 0.000000 -7.125000 0.000000 0.000000 -11.523000 43.247500 -0.505500 -0.000000 0.000000 0.000000 -11.405000 -15.537700 16.020000 -68.747000 -58.222500 -41.704200 2.590400 -8.258000 -7.366200 0.000000 0.000000 0.000000 7.125000 0.000000 -0.000000 21.120600 22.668300 12.176300
-11.803257 17.770182 -12.267400 -0.433268 -6.891976 5.871479 0.000000 0.000000 0.000000 -18.937689 -8.491494 -7.395022 1.485878 7.701269 21.810261 0.492394 4.680364 -15.798244 0.586690 -4.904126 -13.635431 0.000000 0.000000 0.000000 25.906958 7.244566 -14.199383 -3.090989 -10.840843 31.745037 -0.636265 -6.642724 -18.930661 -0.434859 -4.231196 11.727943 -0.303262 -1.854004 3.246718 3.724312 -2.403525 -0.633851 4.134044 -1.174022 -2.299923 -8.935369 -10.409620 -8.788839 5.360515 -13.567437 11.579132 1.954975 -6.654844 5.915108 0.000000 0.000000 0.000000 -1.346551 -0.402627 -17.631793 22.858373 -33.933561 7.059040 11.059709 4.666357 -22.465193 0.000000 0.000000 0.000000 -7.125000 0.000000 0.000000 -18.271160 51.885142 3.299957 0.000000 0.000000 0.000000 -12.174803 -16.419297 13.303527 -63.044227 -57.068037 -36.885459 21.394239 -13.879393 -6.616946 0.000000 0.000000 0.000000 7.125000 0.000000 0.000000 33.173638 22.370521 21.949312
-11.814541 17.765614 -12.277517 -0.618930 -5.601615 5.724614 0.000000 0.000000 0.000000 -18.518065 -8.735130 -7.473563 1.491059 7.714061 21.848993 0.517969 3.690599 -15.445413 0.620399 -5.040634 -14.024549 0.000000 0.000000 0.000000 26.287199 6.977954 -14.071380 -3.082657 -10.827740 31.701050 -0.636300 -7.279361 -19.441890 -0.593311 -4.909533 13.655204 -0.694155 -2.079346 3.181194 3.665488 -2.722246 -0.656692 4.305806 -1.329084 -2.248149 -9.479766 -10.923522 -7.684285 5.639154 -14.279467 10.578369 2.126534 -7.031824 5.527746 0.000000 0.000000 0.000000 -1.880652 -1.925794 -18.609190 24.727772 -35.924462 8.129667 10.839148 5.243314 -30.548407 0.000000 0.000000 0.000000 -7.125000 0.000000 0.000000 -23.448945 59.416707 8.544646 0.000000 0.000000 0.000000 -8.397778 -15.521877 9.446371 -58.937056 -56.016750 -33.458880 -6.497290 -38.371679 -6.681696 0.000000 0.000000 0.000000 7.125000 0.000000 0.000000 14.812273 23.290153 8.013493
-11.808671 17.763679 -12.271861 -0.838577 -5.469132 5.781628 0.000000 0.000000 0.000000 -18.300732 -8.895028 -7.412624 1.492196 7.716849 21.857311 0.522054 3.681452 -15.490780 0.621164 -5.043721 -14.033202 0.000000 0.000000 0.000000 26.514364 6.650137 -14.180589 -3.056804 -10.786390 31.562931 -0.595780 -7.494219 -19.196512 -0.461587 -4.357688 12.085263 -1.217027 -2.375060 2.903921 3.790527 -3.133507 -0.908113 4.743543 -1.524118 -2.284671 -9.690829 -10.723231 -7.596108 4.897359 -13.929817 11.402540 1.951943 -6.918032 5.707181 0.000000 0.000000 0.000000 -2.325169 -1.903190 -18.573982 24.016426 -35.181435 7.716154 13.247278 4.866436 -21.450304 0.000000 0.000000 0.000000 -7.125000 0.000000 0.000000 -15.596660 51.295516 2.470530 0.000000 0.000000 0.000000 -6.530220 -14.994479 6.147016 -41.703206 -49.042124 -19.717722 -14.908160 -24.327856 0.386753 0.000000 0.000000 0.000000 7.125000 0.000000 0.000000 9.197759 30.310428 3.337072
